<?xml version="1.0" encoding="utf-8"?>
<!-- Generator: Adobe Illustrator 16.0.0, SVG Export Plug-In . SVG Version: 6.00 Build 0)  -->
<!DOCTYPE svg PUBLIC "-//W3C//DTD SVG 1.1//EN" "http://www.w3.org/Graphics/SVG/1.1/DTD/svg11.dtd">
<svg version="1.1" id="Layer_1" xmlns="http://www.w3.org/2000/svg" xmlns:xlink="http://www.w3.org/1999/xlink" x="0px" y="0px"
	 width="74.695px" height="72.344px" viewBox="0 0 74.695 72.344" enable-background="new 0 0 74.695 72.344" xml:space="preserve">
<g>
	<path d="M70.443,47.042H59.566H13.658H2.781c-2.339,0-4.252,1.914-4.252,4.251v3.455c0,2.338,1.913,4.252,4.252,4.252h0.956v1.037
		c0,5.457,4.464,9.922,9.921,9.922h45.908c5.455,0,9.92-4.465,9.92-9.922V59h0.957c2.338,0,4.252-1.914,4.252-4.252v-3.455
		C74.695,48.956,72.781,47.042,70.443,47.042z M66.486,60.038c0,3.815-3.104,6.922-6.92,6.922H13.658
		c-3.815,0-6.921-3.104-6.921-6.922V59h59.75L66.486,60.038L66.486,60.038z M71.695,54.749c0,0.678-0.574,1.252-1.252,1.252h-1.006
		h-3.025h-59.6H3.786H2.781C2.102,56,1.529,55.426,1.529,54.749v-3.455c0-0.678,0.573-1.252,1.252-1.252h3.792h7.085h45.908h7.084
		h3.793c0.678,0,1.252,0.574,1.252,1.252V54.749z"/>
	<polygon points="14.691,38.857 20.164,42.857 25.641,38.857 31.12,42.857 36.598,38.857 42.076,42.857 47.557,38.857 
		53.033,42.857 58.516,38.855 64.003,42.855 70.371,38.211 68.603,35.788 64.003,39.143 58.516,35.144 53.033,39.143 47.557,35.143 
		42.076,39.143 36.598,35.143 31.12,39.143 25.641,35.143 20.166,39.143 14.692,35.142 9.215,39.143 4.622,35.789 2.852,38.211 
		9.215,42.857 	"/>
	<path d="M6.819,32.094h59.585h3.013c0.041-0.61,0.069-1.224,0.069-1.844c0-0.388-0.016-0.772-0.033-1.156
		C68.771,13.476,54.333,1,36.611,1C18.892,1,4.453,13.476,3.769,29.094c-0.017,0.384-0.033,0.769-0.033,1.156
		c0,0.62,0.029,1.233,0.072,1.844H6.819z M36.611,4c16.031,0,29.15,11.154,29.842,25.094H6.77C7.463,15.154,20.58,4,36.611,4z"/>
	<circle cx="36.611" cy="16.042" r="2"/>
	<circle cx="28.611" cy="11.083" r="2"/>
	<circle cx="44.611" cy="11.083" r="2"/>
</g>
</svg>
